<?xml version="1.0" encoding="utf-8"?>
<!-- Generator: Adobe Illustrator 16.0.4, SVG Export Plug-In . SVG Version: 6.00 Build 0)  -->
<!DOCTYPE svg PUBLIC "-//W3C//DTD SVG 1.1//EN" "http://www.w3.org/Graphics/SVG/1.1/DTD/svg11.dtd">
<svg version="1.1" id="Layer_1" xmlns="http://www.w3.org/2000/svg" xmlns:xlink="http://www.w3.org/1999/xlink" x="0px" y="0px"
	 width="456.3px" height="133.5px" viewBox="0 0 456.3 133.5" enable-background="new 0 0 456.3 133.5" xml:space="preserve">
<path fill="none" stroke="#FFFFFF" stroke-width="3" d="M11.5,1.5c0,0-10,0-10,10V122c0,0,0,10,10,10h433.3c0,0,10,0,10-10V11.5
	c0,0,0-10-10-10H11.5L11.5,1.5z"/>
<path fill="#FFFFFF" d="M46.637,29.833h-17.57v75.917h11.93V77.227h5.64c11.929,0,17.786-6.616,17.786-18.762v-9.87
	C64.423,36.449,58.566,29.833,46.637,29.833L46.637,29.833z M46.637,40.678c3.795,0,5.856,1.736,5.856,7.158v11.388
	c0,5.422-2.061,7.158-5.856,7.158h-5.64V40.678H46.637L46.637,40.678z M69.954,105.75h31.559V94.904h-19.63V29.833H69.954V105.75
	L69.954,105.75z M133.18,29.833h-17.461l-12.146,75.917h10.953l2.061-13.774h14.641l2.06,13.774h12.039L133.18,29.833L133.18,29.833
	z M123.853,43.281l5.748,38.392h-11.496L123.853,43.281L123.853,43.281z M156.714,105.75h11.93V80.589l15.075-50.756h-11.388
	l-9.11,34.596l-9.11-34.596h-12.472l15.075,50.756V105.75L156.714,105.75z"/>
<path fill="#FFFFFF" d="M202.809,63.223h5.248l2.803-19.878h-3.45l-2.049,15.789l-1.977-15.789h-3.81l-1.906,15.675l-2.12-15.675
	h-3.847l2.804,19.878h5.428l1.438-10.592L202.809,63.223L202.809,63.223z M212.837,63.223h3.954V43.345h-3.954V63.223
	L212.837,63.223z M218.516,46.185h4.134v17.038h3.954V46.185h4.133v-2.84h-12.221V46.185L218.516,46.185z M236.416,54.704h4.494
	v8.519h4.025V43.345h-4.025v8.519h-4.494v-8.519h-3.953v19.878h3.953V54.704L236.416,54.704z"/>
<path fill="#FFFFFF" d="M195.708,94.182h3.954v-6.588l4.996-13.29h-3.774l-3.02,9.059l-3.019-9.059h-4.134l4.997,13.29V94.182
	L195.708,94.182z M209.331,78.876c0-1.42,0.791-1.959,2.049-1.959s2.049,0.539,2.049,1.959V89.61c0,1.42-0.791,1.959-2.049,1.959
	s-2.049-0.539-2.049-1.959V78.876L209.331,78.876z M205.377,89.411c0,3.181,2.121,4.998,6.003,4.998s6.003-1.817,6.003-4.998V79.075
	c0-3.181-2.121-4.998-6.003-4.998s-6.003,1.817-6.003,4.998V89.411L205.377,89.411z M219.755,74.304V89.44
	c0,3.18,2.013,4.997,5.895,4.997s5.895-1.817,5.895-4.997V74.304h-3.737v15.334c0,1.42-0.791,1.931-2.049,1.931
	c-1.258,0-2.049-0.511-2.049-1.931V74.304H219.755L219.755,74.304z M246.534,94.182c-0.395-0.738-0.431-1.448-0.431-2.414v-3.067
	c0-2.073-0.647-3.578-2.624-4.231c1.761-0.653,2.588-1.988,2.588-4.032v-1.562c0-3.067-1.762-4.572-5.859-4.572h-5.967v19.878h3.954
	v-8.093h1.366c1.797,0,2.588,0.681,2.588,2.527v3.124c0,1.618,0.143,1.931,0.359,2.442H246.534L246.534,94.182z M240.1,77.144
	c1.401,0,2.013,0.624,2.013,2.044v1.96c0,1.59-0.898,2.101-2.373,2.101h-1.545v-6.105H240.1L240.1,77.144z"/>
<path fill="#FFFFFF" d="M273.576,29.833h-16.593v75.917h10.412V52.066l8.893,53.684h11.279l8.242-54.443v54.443h11.278V29.833
	h-16.593l-8.134,53.901L273.576,29.833L273.576,29.833z M342.225,29.833h-17.461l-12.146,75.917h10.953l2.062-13.774h14.641
	l2.06,13.774h12.039L342.225,29.833L342.225,29.833z M332.898,43.281l5.748,38.392H327.15L332.898,43.281L332.898,43.281z
	 M352.311,40.679h12.472v65.071h11.93V40.679h12.473V29.833h-36.874V40.679L352.311,40.679z M406.319,73.214h13.557v32.536h12.146
	V29.833h-12.146v32.536h-13.557V29.833h-11.93v75.917h11.93V73.214L406.319,73.214z"/>
</svg>
